<svg xmlns="http://www.w3.org/2000/svg" width="8" height="12" fill="none" xmlns:v="https://vecta.io/nano"><path d="M2.195 11.52a1.58 1.58 0 1 1 0-3.163h1.129a.45.45 0 0 1 .452.452v1.129a1.58 1.58 0 0 1-1.581 1.581zm3.953-7.906H5.019a.45.45 0 0 1-.452-.452V.903a.45.45 0 0 1 .452-.452h1.129a1.58 1.58 0 1 1 0 3.163zM2.195.451h1.129a.45.45 0 0 1 .452.452v2.259a.45.45 0 0 1-.452.452H2.195a1.58 1.58 0 1 1 0-3.163zm0 3.953h1.129a.45.45 0 0 1 .452.452v2.259a.45.45 0 0 1-.452.452H2.195a1.58 1.58 0 1 1 0-3.163zm3.953 0a1.58 1.58 0 0 0-1.581 1.581 1.58 1.58 0 0 0 1.581 1.581A1.58 1.58 0 0 0 7.73 5.985a1.58 1.58 0 0 0-1.581-1.581z" fill="#fff"/></svg>