<svg xmlns="http://www.w3.org/2000/svg" width="13" height="13" fill="none" xmlns:v="https://vecta.io/nano"><path d="M8.729 12.16c-.307.06-.416-.129-.416-.292l.008-1.665c0-.567-.194-.937-.411-1.125 1.347-.15 2.761-.664 2.761-2.996 0-.663-.234-1.205-.622-1.629.063-.154.27-.771-.06-1.607 0 0-.507-.163-1.661.622a5.79 5.79 0 0 0-1.514-.204c-.515.003-1.031.07-1.514.204-1.155-.785-1.663-.622-1.663-.622-.329.836-.121 1.453-.059 1.607a2.35 2.35 0 0 0-.623 1.629c0 2.326 1.412 2.847 2.755 3-.173.152-.329.42-.384.812-.345.156-1.221.424-1.76-.504 0 0-.32-.583-.926-.626 0 0-.591-.008-.042.369 0 0 .397.187.671.888 0 0 .355 1.181 2.037.814l.008 1.033c0 .161-.11.349-.413.293A6.07 6.07 0 0 1 .766 6.401C.766 3.047 3.474.328 6.814.328s6.048 2.718 6.048 6.072c0 2.681-1.731 4.955-4.133 5.76z" fill="#fff"/></svg>